<?xml version="1.0" ?><!DOCTYPE svg  PUBLIC '-//W3C//DTD SVG 1.1//EN'  'http://www.w3.org/Graphics/SVG/1.1/DTD/svg11.dtd'><svg enable-background="new 0 0 24 24" height="24px" id="Layer_1" version="1.1" viewBox="0 0 24 24" width="24px" xml:space="preserve" xmlns="http://www.w3.org/2000/svg" xmlns:xlink="http://www.w3.org/1999/xlink"><path d="M12,0.4C5.6,0.4,0.4,5.6,0.4,12S5.6,23.6,12,23.6c6.4,0,11.6-5.2,11.6-11.6S18.4,0.4,12,0.4z M14.9,10h-1V9.5  c0-0.6-0.5-1.1-1.1-1.1h-1.7c-0.6,0-1.1,0.5-1.1,1.1v4.9c0,0.6,0.5,1.1,1.1,1.1h1.7c0.6,0,1.1-0.5,1.1-1.1V14h1v0.5  c0,1.1-0.9,2.1-2.1,2.1h-1.7c-1.2,0-2.1-0.9-2.1-2.1V9.5c0-1.1,0.9-2.1,2.1-2.1h1.7c1.2,0,2.1,0.9,2.1,2.1V10z"/></svg>