<?xml version="1.0" standalone="no"?>
<!DOCTYPE svg PUBLIC "-//W3C//DTD SVG 20010904//EN"
 "http://www.w3.org/TR/2001/REC-SVG-20010904/DTD/svg10.dtd">
<svg version="1.0" xmlns="http://www.w3.org/2000/svg"
 width="700.000000pt" height="700.000000pt" viewBox="0 0 700.000000 700.000000"
 preserveAspectRatio="xMidYMid meet">
<metadata>
Created by potrace 1.11, written by Peter Selinger 2001-2013
</metadata>
<g transform="translate(0.000000,700.000000) scale(0.100000,-0.100000)"
fill="#000000" stroke="none">
<path d="M3407 6884 c-1 -1 -54 -5 -117 -8 -63 -4 -126 -8 -140 -11 -14 -2
-50 -6 -80 -9 -30 -3 -65 -8 -76 -10 -12 -2 -39 -7 -60 -10 -68 -11 -186 -36
-288 -62 -98 -25 -362 -110 -381 -124 -5 -3 -32 -15 -60 -25 -54 -20 -260
-118 -340 -162 -674 -375 -1223 -995 -1503 -1699 -88 -221 -170 -508 -196
-689 -4 -23 -8 -51 -11 -64 -2 -13 -7 -49 -10 -80 -4 -31 -8 -63 -10 -71 -6
-24 -17 -246 -18 -355 0 -97 11 -327 17 -362 2 -10 7 -45 11 -78 4 -32 9 -68
11 -79 2 -11 6 -38 10 -61 10 -69 33 -176 64 -290 137 -515 374 -958 740
-1380 80 -93 294 -295 410 -388 368 -294 751 -493 1203 -623 116 -33 137 -38
207 -50 19 -3 37 -7 40 -9 3 -2 26 -6 50 -10 25 -3 61 -10 80 -15 80 -20 376
-43 545 -43 104 1 312 11 355 18 14 2 46 6 72 9 86 11 253 40 333 60 6 2 24 6
40 10 79 18 340 98 380 116 11 5 49 21 85 36 554 225 1028 584 1398 1057 293
375 509 819 618 1271 29 122 29 125 50 240 2 11 8 56 14 100 6 45 13 92 15
105 7 38 18 267 18 361 0 95 -12 340 -17 349 -2 3 -7 35 -10 71 -6 56 -22 158
-42 265 -3 17 -21 89 -39 162 -240 926 -859 1705 -1717 2156 -226 119 -502
223 -748 282 -22 6 -207 44 -265 55 -27 5 -77 12 -110 15 -33 3 -69 8 -80 10
-41 8 -441 25 -448 19z m401 -2048 c248 -25 456 -205 519 -449 9 -38 16 -109
17 -182 l1 -120 -145 0 -145 0 -1 88 c-1 48 -5 104 -9 124 -16 89 -85 176
-173 219 l-57 29 -305 3 c-320 3 -360 -1 -430 -41 -57 -33 -118 -105 -141
-166 -22 -56 -22 -60 -22 -826 l0 -770 23 -60 c30 -77 105 -153 181 -182 50
-20 75 -21 354 -22 341 -2 370 3 454 69 87 69 130 173 125 302 -1 46 2 58 15
62 9 2 75 3 146 3 l130 -2 -1 -95 c-1 -150 -15 -224 -61 -315 -93 -183 -270
-313 -464 -340 -49 -7 -648 -7 -684 0 -206 40 -362 155 -443 325 -69 145 -66
107 -66 1015 l1 820 26 80 c36 108 85 187 165 265 101 97 221 152 366 168 76
9 532 7 624 -2z"/>
</g>
</svg>
